<?xml version="1.0"?>
<svg width="151" height="151" xmlns="http://www.w3.org/2000/svg" xmlns:svg="http://www.w3.org/2000/svg">
 <g class="layer">
  <title>Layer 1</title>
  <path d="m150.92,76.28l0,-61.51c0,0 -53.98,55.74 -58.69,59.74c-4.71,4.01 -8.2,8.19 -12.13,6.64c-6.11,-2.41 -31.37,-14.92 -36.66,-20.35c-5.28,-5.44 -8.68,-10.64 -11.33,-15.64c-1.23,-2.34 -9.23,-0.55 -11.45,4.03c-1.95,4.04 -1.75,8.82 0.6,12.58c2.35,3.76 7.03,7.32 8.69,9.65c1.32,1.85 -1.54,11.26 4.24,19.47c5.78,8.21 22.93,15.08 24.85,18.46c2.51,4.39 1.81,15.62 6.28,19.71c7.35,6.73 16.44,5.94 21.78,1.61c5.86,-4.74 10.58,-17.68 11.85,-19.15c7.6,-8.83 51.97,-35.24 51.97,-35.24z" fill="#000000" id="svg_1"/>
 </g>
</svg>